<svg width="115" height="35" fill="none" xmlns="http://www.w3.org/2000/svg"><path fill-rule="evenodd" clip-rule="evenodd" d="M17.135 22.462c8.595 5.05 19.223 8.09 30.2 8.09 7.404 0 15.549-1.548 23.038-4.758 1.13-.486 2.077.748.97 1.577C64.662 32.346 54.975 35 46.636 35c-11.694 0-22.221-4.368-30.186-11.633-.625-.571-.065-1.35.686-.905zm59.84-.495c.731.915-.19 7.26-3.78 10.288-.55.465-1.075.217-.83-.4.806-2.032 2.613-6.587 1.757-7.694-.851-1.102-5.647-.521-7.8-.263-.655.08-.755-.496-.164-.91 3.82-2.715 10.087-1.931 10.817-1.021zM89.58.177c5.281 0 8.14 4.58 8.14 10.404 0 5.627-3.159 10.091-8.14 10.091-5.186 0-8.01-4.58-8.01-10.288 0-5.743 2.86-10.207 8.01-10.207zM55.215 0c1.732 0 3.994.465 5.361 1.79 1.645 1.551 1.579 3.595 1.568 5.829l-.001 5.955c0 1.684.69 2.422 1.341 3.332.226.324.276.713-.015.956-.725.611-2.017 1.749-2.728 2.386l-.005-.01a.738.738 0 01-.84.086c-1.182-.991-1.397-1.451-2.043-2.397-1.952 2.012-3.339 2.614-5.867 2.614-2.998 0-5.326-1.866-5.326-5.602 0-2.917 1.562-4.904 3.794-5.874 1.932-.86 4.63-1.011 6.693-1.249v-.465c0-.855.065-1.866-.435-2.604-.43-.662-1.262-.935-1.998-.935-1.356 0-2.563.703-2.858 2.159-.06.323-.296.642-.62.657l-3.45-.374c-.29-.066-.616-.304-.53-.753C48.045 1.274 51.83 0 55.215 0zM8.555 0c1.732 0 3.995.465 5.361 1.79 1.732 1.633 1.567 3.812 1.567 6.183v5.601c0 1.684.691 2.422 1.342 3.332.23.324.28.713-.01.956-.726.611-2.018 1.749-2.729 2.386l-.01-.01a.738.738 0 01-.84.086c-1.182-.991-1.392-1.451-2.043-2.397-1.952 2.012-3.334 2.614-5.867 2.614C2.333 20.54 0 18.675 0 14.939c0-2.917 1.567-4.904 3.794-5.874 1.933-.86 4.63-1.011 6.693-1.249v-.465c0-.855.065-1.866-.43-2.604-.436-.662-1.267-.935-1.998-.935-1.356 0-2.568.703-2.863 2.159-.06.323-.295.642-.616.657l-3.454-.374c-.29-.066-.61-.304-.53-.753C1.392 1.274 5.17 0 8.555 0zM38.54.177c1.492 0 3.124.622 4.12 2.017 1.126 1.552.896 3.807.896 5.784l-.005 11.643a.675.675 0 01-.686.667h-3.554a.68.68 0 01-.64-.667V9.843c0-.778.07-2.72-.1-3.458-.266-1.238-1.062-1.587-2.093-1.587-.861 0-1.762.581-2.128 1.511-.284.724-.326 1.827-.33 2.773v10.539a.675.675 0 01-.686.667H29.78a.677.677 0 01-.64-.667l-.006-9.778c0-2.057.336-5.086-2.192-5.086-2.303 0-2.452 2.392-2.459 4.425v10.439a.675.675 0 01-.685.667h-3.56a.675.675 0 01-.635-.612V1.23c0-.37.305-.663.686-.663h3.319c.345.015.62.283.645.617v2.412h.066C25.184 1.264 26.81.177 29.003.177c2.228 0 3.62 1.087 4.62 3.418.861-2.331 2.819-3.418 4.916-3.418zm71.374 0c1.597 0 3.154.581 4.155 2.174.931 1.476.931 3.958.931 5.743v11.613a.686.686 0 01-.686.581h-3.569c-.325-.025-.596-.268-.631-.581V9.687c0-2.018.231-4.97-2.227-4.97-.866 0-1.662.586-2.058 1.476-.5 1.128-.565 2.25-.565 3.494v9.934a.688.688 0 01-.696.667h-3.544a.68.68 0 01-.641-.667l-.005-18.453a.675.675 0 01.686-.602h3.299c.31.015.565.228.635.516v2.82h.065c.997-2.522 2.393-3.725 4.851-3.725zM78.832.516c.376 0 .676.273.676.667v2.26c-.005.379-.32.874-.88 1.658l-6.063 8.741c2.253-.055 4.63.283 6.673 1.446.46.263.586.647.62 1.026v2.816c0 .385-.42.835-.86.602-3.6-1.906-8.38-2.113-12.36.02-.405.223-.83-.222-.83-.606V16.47c0-.43.004-1.163.43-1.815L73.26 4.484h-6.112c-.376 0-.676-.268-.676-.662V1.183c0-.4.3-.667.66-.667h11.7zM57.147 10.698c-2.578 0-5.296.556-5.296 3.62 0 1.552.8 2.603 2.167 2.603.997 0 1.898-.622 2.463-1.633.701-1.244.666-2.411.666-3.812v-.778zm-46.66 0c-2.573 0-5.29.556-5.29 3.62 0 1.552.795 2.603 2.162 2.603 1 0 1.897-.622 2.463-1.633.7-1.244.665-2.411.665-3.812v-.778zM89.61 3.943c-2.623 0-2.788 3.61-2.788 5.86 0 2.255-.035 7.068 2.758 7.068 2.758 0 2.889-3.883 2.889-6.25 0-1.556-.066-3.417-.531-4.893-.4-1.284-1.197-1.785-2.328-1.785z" fill="#FF7A24"/></svg>