<svg width="90" height="30" fill="none" xmlns="http://www.w3.org/2000/svg"><path d="M51.2 4.122c-9.063 2.26-16.669 4.14-16.9 4.204-.867.212-1.015.55-1.691 3.507-1.437 6.359-2.64 11.598-3.274 14.175-.74 3.148-.76 3.465-.233 3.76.655.339 32.787.296 33.252-.063.232-.169.57-1.225.972-3 1.12-4.9 5.049-22.118 5.514-24.146.507-2.176.422-2.598-.613-2.556-.296 0-7.965 1.859-17.027 4.12zm10.562 7.479c1.205.528 2.176 1.584 2.514 2.725.148.528.254 1.035.19 1.12-.042.105-.845.169-1.795.169-1.606 0-1.711-.021-2.282-.634-.591-.634-1.035-.74-2.535-.634-2.176.148-3.803 2.472-3.549 5.112.084.888.232 1.205.76 1.67 1.29 1.161 3.655.992 5.007-.36.402-.401.74-.824.74-.93 0-.126-.866-.21-2.007-.21-1.986 0-2.007 0-1.923-.486.064-.254.17-.824.233-1.268l.127-.782h7.224l-.147 1.099c-.275 2.07-.529 2.662-1.733 3.971-1.69 1.817-3.4 2.62-5.788 2.705-1.69.063-1.88.02-3.169-.634-.93-.486-1.542-.972-1.944-1.542-2.239-3.296-.274-8.979 3.74-10.796 2.112-.971 4.563-1.077 6.337-.295zm-19.858-.19c.444.126 1.141.549 1.521.93.592.59.698.844.698 1.647 0 1.584-.613 2.683-1.944 3.528l-.592.359.486.253c1.606.867 1.648 3.74.085 5.26-1.268 1.226-1.944 1.395-6.317 1.48-3.676.084-3.971.063-3.971-.296 0-.338 1.964-11.81 2.218-12.929.105-.465.169-.465 3.549-.465 1.88 0 3.803.106 4.267.233zm8.26.338c-.063.338-.359 1.964-.654 3.654-1.331 7.542-1.627 9.19-1.712 9.338-.063.105-.824.169-1.69.169-1.415 0-1.563-.042-1.563-.423 0-.38 1.944-11.513 2.218-12.844.106-.444.233-.465 1.817-.465h1.711l-.127.57z" fill="#fff"/><path d="M37.087 14.072c-.063.106-.17.719-.254 1.374l-.148 1.225h1.353c1.732 0 2.492-.486 2.492-1.585 0-.507-.126-.802-.401-.95-.486-.254-2.915-.296-3.042-.064zm-1.055 5.916c-.085.444-.211 1.12-.275 1.52l-.148.698 1.754-.063c1.52-.085 1.774-.148 2.133-.592.529-.655.529-1.838 0-2.133-.232-.106-1.077-.212-1.88-.212H36.16l-.127.782zM5.864 11.453c-1.415.401-2.767 1.267-3.845 2.471C.752 15.34.14 16.945.034 19.1c-.085 1.521-.043 1.796.507 2.852.802 1.584 1.964 2.408 3.76 2.725 2.556.444 4.965-.317 6.95-2.218 1.141-1.077 1.712-2.155 1.902-3.549.084-.57.211-1.162.274-1.31.085-.253-.528-.296-3.485-.296h-3.57l-.149.782c-.21 1.394-.295 1.331 1.88 1.331 1.141 0 2.008.084 2.008.211 0 .338-1.29 1.69-1.923 2.028-.95.486-2.957.38-3.802-.19-2.07-1.373-1.29-5.556 1.288-6.866 1.542-.781 3.423-.528 4.077.529.127.19.719.274 1.986.274h1.796l-.148-.591c-.528-2.176-2.303-3.444-4.943-3.57-.888-.022-2.028.063-2.578.21zm14.683-.085c-3.148.761-5.472 3.634-5.725 7.077-.211 2.81.74 4.733 2.852 5.768 1.035.507 1.457.591 3 .57 1.563 0 2.006-.084 3.168-.655 2.472-1.14 3.95-3.147 4.437-6.042.57-3.21-.93-5.915-3.718-6.675-.909-.254-3-.275-4.014-.043zm3.464 3.19c.845.529 1.141 1.247 1.141 2.789-.02 2.472-1.648 4.373-3.887 4.542-2.26.169-3.443-1.098-3.274-3.465.19-2.577 1.837-4.288 4.161-4.288.782 0 1.373.127 1.86.422zm45.779-3.126c-.042.148-.528 2.788-1.056 5.873-.528 3.084-1.057 6-1.141 6.485l-.17.909h7.501l.126-.634c.064-.36.19-.93.254-1.268l.126-.633H71.1l.126-.803c.064-.423.402-2.45.782-4.479.36-2.028.74-4.14.824-4.71l.169-.994h-1.563c-1.057 0-1.585.085-1.648.254zm12.506 1.056c-1.669 3-6.486 12.02-6.486 12.105 0 .064.74.106 1.648.106h1.648l.613-1.268.612-1.289 2.535.064 2.557.063.211 1.162.211 1.162 1.648.064c.887.042 1.627-.022 1.627-.106 0-.085-.529-3.148-1.205-6.781l-1.225-6.592h-3.676l-.718 1.31zm2.26 4.225c.19 1.078.402 2.218.465 2.535l.127.592h-1.711c-1.035 0-1.711-.085-1.711-.211 0-.19 2.366-4.86 2.45-4.86.021 0 .19.888.38 1.944z" fill="#fff"/></svg>