<svg width="76" height="44" fill="none" xmlns="http://www.w3.org/2000/svg"><path fill-rule="evenodd" clip-rule="evenodd" d="M28.115 0C26.63 0 25.57.718 25.57 2.482v31.095c0 .692.472.986 1.07.986h3.731c1.492 0 2.548-.72 2.548-2.487V.986c0-.695-.476-.986-1.07-.986h-3.734zM8.668 10.6C2.984 10.6 0 13.796 0 17.869c0 3.62 2.297 5.825 6.884 6.817l7.322 1.589c1.488.325 1.95.731 1.95 1.468 0 .565-.462 1.016-1.806 1.016H2.997c-1.82 0-2.552 1.024-2.552 2.463v2.301c0 .577.295 1.04 1.008 1.04h12.454c6.727 0 9.443-3.2 9.443-6.98 0-3.911-2.33-6.114-6.886-7.104L9.14 18.885c-1.489-.323-1.95-.73-1.95-1.468 0-.563.462-1.012 1.807-1.012h10.895c1.816 0 2.55-1.027 2.55-2.47v-2.294c0-.578-.296-1.04-1.008-1.04H8.668zm34.204.987c.67-.695 1.268-.986 2.39-.986h5.398c1.323 0 1.904.323 2.456 1.17l8.928 13.644 6.4-13.787c.331-.717.744-1.027 1.651-1.027h4.537c.608 0 1.048.29 1.048.876 0 .264-.126.523-.257.793l-.041.085-14.636 30.622c-.34.716-.734 1.023-1.652 1.023h-4.5c-.607 0-1.052-.284-1.052-.872 0-.246.116-.492.235-.744.02-.044.042-.088.061-.132L58.8 32.076 47.578 15.977l-5.685 5.94L49.38 32.67l.031.043c.237.328.412.57.412.934 0 .621-.442.916-1.202.916h-5.078c-.746 0-1.156-.326-1.65-1.021l-8.525-12.054 9.504-9.901z" fill="#3BC7DA"/></svg>