<svg width="25" height="25" fill="none" xmlns="http://www.w3.org/2000/svg"><path d="M24.688 3.439c-.9.479-1.83.81-2.82.958 1.02-.737 1.8-1.917 2.16-3.355-.96.7-2.01 1.18-3.12 1.475-.9-1.18-2.19-1.917-3.6-1.917-2.73 0-4.92 2.728-4.92 6.046 0 .48.03.922.12 1.364-4.08-.221-7.68-2.654-10.11-6.304-1.74 3.834.21 7.005 1.5 8.074-.78 0-1.56-.295-2.22-.738 0 2.987 1.71 5.457 3.93 6.01-.48.184-1.56.295-2.22.11.63 2.396 2.46 4.166 4.59 4.203-1.68 1.622-4.14 2.912-7.29 2.507 2.19 1.733 4.77 2.728 7.56 2.728 9.06 0 13.98-9.217 13.98-17.18 0-.258 0-.516-.03-.774a11.33 11.33 0 002.49-3.207z" fill="#fff"/></svg>