<svg width="46" height="46" fill="none" xmlns="http://www.w3.org/2000/svg"><circle cx="22.781" cy="22.594" r="22.594" fill="#2F2D2D"/><g clip-path="url(#clip0_469_481)" opacity=".89"><path d="M31.677 15.114a8.921 8.921 0 01-2.57 1.252 3.667 3.667 0 00-6.435 2.456v.819a8.727 8.727 0 01-7.367-3.709S12.03 23.3 19.398 26.574a9.529 9.529 0 01-5.73 1.638c7.367 4.093 16.372 0 16.372-9.415a3.69 3.69 0 00-.066-.679 6.32 6.32 0 001.703-3.004v0z" stroke="#FAF7F3" stroke-width="1.637" stroke-linecap="round" stroke-linejoin="round"/></g><defs><clipPath id="clip0_469_481"><path fill="#fff" transform="translate(12.848 12.66)" d="M0 0h19.647v19.647H0z"/></clipPath></defs></svg>