<svg width="11" height="16" fill="none" xmlns="http://www.w3.org/2000/svg"><path d="M1.799 15.58a1.402 1.402 0 01-.698-.18 1.126 1.126 0 01-.463-.481.93.93 0 01-.071-.622c.049-.208.169-.4.345-.55l6.62-5.665-6.62-5.667a1.004 1.004 0 01-.367-.76c0-.141.032-.281.095-.412A1.08 1.08 0 01.912.894c.117-.1.255-.179.407-.233.152-.054.315-.082.48-.082.332 0 .651.114.887.315l7.493 6.427a1 1 0 01.364.755 1 1 0 01-.364.755l-7.493 6.427a1.276 1.276 0 01-.406.237 1.431 1.431 0 01-.481.084z" fill="#fff"/></svg>